<svg width="377" height="77" viewBox="0 0 377 77" fill="none" xmlns="http://www.w3.org/2000/svg">
<g filter="url(#filter0_d)">
<circle cx="29" cy="44" r="25" fill="#FFB800"/>
</g>
<g filter="url(#filter1_b)">
<circle cx="89" cy="44" r="25" fill="#0C9BAE"/>
</g>
<path d="M154.328 61V55.832H154.188C152.781 57.8477 151.363 59.3125 149.934 60.2266C148.504 61.1172 146.734 61.5625 144.625 61.5625C141.086 61.5625 138.074 60.0391 135.59 56.9922C133.105 53.9453 131.863 50.2422 131.863 45.8828C131.863 41.5703 133.188 37.8789 135.836 34.8086C138.484 31.7148 141.625 30.168 145.258 30.168C146.992 30.168 148.551 30.5547 149.934 31.3281C151.316 32.1016 152.781 33.332 154.328 35.0195V30.8359H163.328V61H154.328ZM147.719 39.168C145.938 39.168 144.449 39.8828 143.254 41.3125C142.059 42.7188 141.461 44.5 141.461 46.6562C141.461 48.6719 142.023 50.3008 143.148 51.543C144.297 52.7617 145.797 53.3711 147.648 53.3711C149.43 53.3711 150.953 52.668 152.219 51.2617C153.484 49.832 154.117 48.1094 154.117 46.0938C154.117 44.2188 153.484 42.6016 152.219 41.2422C150.953 39.8594 149.453 39.168 147.719 39.168ZM181.785 30.7656V35.582C182.207 35.3008 182.828 34.7617 183.648 33.9648C184.469 33.168 185.254 32.5 186.004 31.9609C186.777 31.3984 187.691 30.9531 188.746 30.625C189.824 30.2734 190.797 30.0977 191.664 30.0977C193.047 30.0977 194.547 30.5898 196.164 31.5742C197.781 32.5352 199.129 34.2578 200.207 36.7422C202.082 34.3516 203.91 32.6523 205.691 31.6445C207.496 30.6133 209.172 30.0977 210.719 30.0977C213.461 30.0977 215.781 31.2344 217.68 33.5078C219.578 35.7578 220.527 38.5352 220.527 41.8398V61H211.527V44.2305C211.527 42.5664 211.07 41.1719 210.156 40.0469C209.242 38.8984 208.141 38.3242 206.852 38.3242C205.305 38.3242 203.969 38.9688 202.844 40.2578C201.719 41.5469 201.156 43.082 201.156 44.8633V61H192.227V44.6523C192.227 42.8945 191.758 41.418 190.82 40.2227C189.906 39.0039 188.793 38.3945 187.48 38.3945C185.934 38.3945 184.598 39.0625 183.473 40.3984C182.348 41.7109 181.785 43.293 181.785 45.1445V61H172.715V30.7656H181.785ZM238.809 30.7656V35.582C239.23 35.3008 239.852 34.7617 240.672 33.9648C241.492 33.168 242.277 32.5 243.027 31.9609C243.801 31.3984 244.715 30.9531 245.77 30.625C246.848 30.2734 247.82 30.0977 248.688 30.0977C250.07 30.0977 251.57 30.5898 253.188 31.5742C254.805 32.5352 256.152 34.2578 257.23 36.7422C259.105 34.3516 260.934 32.6523 262.715 31.6445C264.52 30.6133 266.195 30.0977 267.742 30.0977C270.484 30.0977 272.805 31.2344 274.703 33.5078C276.602 35.7578 277.551 38.5352 277.551 41.8398V61H268.551V44.2305C268.551 42.5664 268.094 41.1719 267.18 40.0469C266.266 38.8984 265.164 38.3242 263.875 38.3242C262.328 38.3242 260.992 38.9688 259.867 40.2578C258.742 41.5469 258.18 43.082 258.18 44.8633V61H249.25V44.6523C249.25 42.8945 248.781 41.418 247.844 40.2227C246.93 39.0039 245.816 38.3945 244.504 38.3945C242.957 38.3945 241.621 39.0625 240.496 40.3984C239.371 41.7109 238.809 43.293 238.809 45.1445V61H229.738V30.7656H238.809ZM285.602 19.5859C285.602 18.0625 286.152 16.75 287.254 15.6484C288.355 14.5469 289.68 13.9961 291.227 13.9961C292.773 13.9961 294.098 14.5469 295.199 15.6484C296.301 16.75 296.852 18.0625 296.852 19.5859C296.852 21.1328 296.301 22.457 295.199 23.5586C294.098 24.6602 292.773 25.2109 291.227 25.2109C289.68 25.2109 288.355 24.6602 287.254 23.5586C286.152 22.457 285.602 21.1328 285.602 19.5859ZM286.762 30.7656H295.762V61H286.762V30.7656ZM333.203 48.0273H311.652C311.77 49.9727 312.402 51.5547 313.551 52.7734C314.723 53.9922 316.082 54.6016 317.629 54.6016C320.395 54.6016 322.562 53.3477 324.133 50.8398L332.395 53.582C329.324 58.9492 324.555 61.6328 318.086 61.6328C313.328 61.6328 309.543 60.1914 306.73 57.3086C303.918 54.4258 302.512 50.5469 302.512 45.6719C302.512 41.2891 303.988 37.6094 306.941 34.6328C309.918 31.6562 313.574 30.168 317.91 30.168C322.27 30.168 325.902 31.7383 328.809 34.8789C331.738 37.9961 333.203 41.8984 333.203 46.5859V48.0273ZM311.723 41.9805H323.887C323.043 38.207 321.109 36.3203 318.086 36.3203C316.352 36.3203 314.91 36.8125 313.762 37.7969C312.637 38.7812 311.957 40.1758 311.723 41.9805Z" fill="white"/>
<defs>
<filter id="filter0_d" x="0" y="19" width="58" height="58" filterUnits="userSpaceOnUse" color-interpolation-filters="sRGB">
<feFlood flood-opacity="0" result="BackgroundImageFix"/>
<feColorMatrix in="SourceAlpha" type="matrix" values="0 0 0 0 0 0 0 0 0 0 0 0 0 0 0 0 0 0 127 0" result="hardAlpha"/>
<feOffset dy="4"/>
<feGaussianBlur stdDeviation="2"/>
<feComposite in2="hardAlpha" operator="out"/>
<feColorMatrix type="matrix" values="0 0 0 0 0 0 0 0 0 0 0 0 0 0 0 0 0 0 0.92 0"/>
<feBlend mode="color-burn" in2="BackgroundImageFix" result="effect1_dropShadow"/>
<feBlend mode="normal" in="SourceGraphic" in2="effect1_dropShadow" result="shape"/>
</filter>
<filter id="filter1_b" x="60" y="15" width="58" height="58" filterUnits="userSpaceOnUse" color-interpolation-filters="sRGB">
<feFlood flood-opacity="0" result="BackgroundImageFix"/>
<feGaussianBlur in="BackgroundImage" stdDeviation="2"/>
<feComposite in2="SourceAlpha" operator="in" result="effect1_backgroundBlur"/>
<feBlend mode="normal" in="SourceGraphic" in2="effect1_backgroundBlur" result="shape"/>
</filter>
</defs>
</svg>
